<?xml version="1.0" encoding="UTF-8" standalone="no"?>
<!-- Generator: Adobe Illustrator 19.0.0, SVG Export Plug-In . SVG Version: 6.00 Build 0)  -->

<svg
   xmlns:dc="http://purl.org/dc/elements/1.1/"
   xmlns:cc="http://creativecommons.org/ns#"
   xmlns:rdf="http://www.w3.org/1999/02/22-rdf-syntax-ns#"
   xmlns:svg="http://www.w3.org/2000/svg"
   xmlns="http://www.w3.org/2000/svg"
   xmlns:sodipodi="http://sodipodi.sourceforge.net/DTD/sodipodi-0.dtd"
   xmlns:inkscape="http://www.inkscape.org/namespaces/inkscape"
   version="1.1"
   id="Capa_1"
   x="0px"
   y="0px"
   viewBox="0 0 513.28 513.28"
   style="enable-background:new 0 0 513.28 513.28;"
   xml:space="preserve"
   sodipodi:docname="loupe.svg"
   inkscape:version="0.92.5 (2060ec1f9f, 2020-04-08)"><metadata
   id="metadata43"><rdf:RDF><cc:Work
       rdf:about=""><dc:format>image/svg+xml</dc:format><dc:type
         rdf:resource="http://purl.org/dc/dcmitype/StillImage" /></cc:Work></rdf:RDF></metadata><defs
   id="defs41" /><sodipodi:namedview
   pagecolor="#ffffff"
   bordercolor="#666666"
   borderopacity="1"
   objecttolerance="10"
   gridtolerance="10"
   guidetolerance="10"
   inkscape:pageopacity="0"
   inkscape:pageshadow="2"
   inkscape:window-width="755"
   inkscape:window-height="480"
   id="namedview39"
   showgrid="false"
   inkscape:zoom="0.459788"
   inkscape:cx="256.64001"
   inkscape:cy="239.24069"
   inkscape:window-x="772"
   inkscape:window-y="149"
   inkscape:window-maximized="0"
   inkscape:current-layer="g6" />
<g
   id="g6">
	<g
   id="g4"
   style="fill:#30819b;fill-opacity:1">
		<path
   d="M495.04,404.48L410.56,320c15.36-30.72,25.6-66.56,25.6-102.4C436.16,97.28,338.88,0,218.56,0S0.96,97.28,0.96,217.6    s97.28,217.6,217.6,217.6c35.84,0,71.68-10.24,102.4-25.6l84.48,84.48c25.6,25.6,64,25.6,89.6,0    C518.08,468.48,518.08,430.08,495.04,404.48z M218.56,384c-92.16,0-166.4-74.24-166.4-166.4S126.4,51.2,218.56,51.2    s166.4,74.24,166.4,166.4S310.72,384,218.56,384z"
   id="path2"
   style="fill:#30819b;fill-opacity:1" />
	</g>
</g>
<g
   id="g8">
</g>
<g
   id="g10">
</g>
<g
   id="g12">
</g>
<g
   id="g14">
</g>
<g
   id="g16">
</g>
<g
   id="g18">
</g>
<g
   id="g20">
</g>
<g
   id="g22">
</g>
<g
   id="g24">
</g>
<g
   id="g26">
</g>
<g
   id="g28">
</g>
<g
   id="g30">
</g>
<g
   id="g32">
</g>
<g
   id="g34">
</g>
<g
   id="g36">
</g>
</svg>